<svg height="16" viewBox="0 0 16 16" width="16" xmlns="http://www.w3.org/2000/svg" xmlns:xlink="http://www.w3.org/1999/xlink"><path d="m15 8v7h-14v-14h7" fill="#e5e5e5" stroke="#fff"/><path d="m8 1h7v7" fill="none" stroke="#000" stroke-dasharray=".5 1" stroke-linejoin="bevel"/><g transform="translate(-2 -10)"><path d="m3.8 18v-.296h.456l.872-5.288h-.416l-.008-.296h3.224l-.192 1.16h-.328l.144-.864h-2.096l-.392 2.376h1.928l-.048.296h-1.928l-.432 2.616h2.096l.144-.864h.328l-.192 1.16z"/><path id="a" d="m7.056 19.72v-.296h.328q.136 0 .264-.024.136-.016.264-.08.136-.064.24-.16.112-.096.184-.216.08-.12.12-.248.04-.128.064-.264l.64-3.856h-1.224v-.288h1.272l.152-.928q.024-.168.08-.328.056-.168.152-.32.096-.152.232-.272.144-.12.304-.192.16-.072.328-.096.176-.032.344-.032h.328v.296h-.328q-.136 0-.272.024-.128.016-.256.08-.128.064-.24.16-.104.096-.184.216-.072.12-.112.248-.04.128-.064.264l-.144.88h1.224v.288h-1.272l-.648 3.904q-.032.168-.088.328-.048.168-.152.32-.096.152-.24.272-.136.12-.296.192-.16.072-.336.096-.168.032-.336.032z" transform="translate(-1.473064)"/><use transform="translate(1.48561)" xlink:href="#a"/></g></svg>